# xmcd CD database file
#
# Track frame offsets:
#	150
#	14297
#	25094
#	33288
#	46376
#	57931
#	70466
#	79657
#	90795
#	104164
#	114496
#	129159
#	142791
#	156487
#	168262
#	179381
#	193097
#	207488
#	219554
#	230125
#	238197
#	251641
#	272032
#	283629
#	297798
#	307848
#	321063
#	333209
#
# Disc length: 4601 seconds
#
# Revision: 0
# Processed by: cddbd v1.5.2PL0 Copyright (c) Steve Scherf et al.
# Submitted via: CDex 1.51
#
DISCID=9111f71c
DTITLE=Lowell Fulson - The Blues Come Rollin' In 1952-1962
DYEAR=2015
DGENRE=Blues
TTITLE0=Have You Changed Your Mind
TTITLE1=Coming Home
TTITLE2=Can She ( Do It )
TTITLE3=Trouble, Trouble
TTITLE4=I Still Love You, Baby
TTITLE5=It`s A Long Time
TTITLE6=Love Grows Cold
TTITLE7=So Many Tears
TTITLE8=Hung Down Head
TTITLE9=K.C. Bound
TTITLE10=I Wanna Make Love To You
TTITLE11=Don`t Leave Me, Baby
TTITLE12=I Believe I`ll Give It Up
TTITLE13=Let Me Love You, Baby
TTITLE14=Blue Shadows
TTITLE15=Check Yourself
TTITLE16=Reconsider Baby
TTITLE17=That`s All Right
TTITLE18=Chuck With The Boys
TTITLE19=Rock This Morning
TTITLE20=The Blues Come Rollin' In
TTITLE21=I Want To Know ( Part 1&2 )
TTITLE22=Why Don`t You Write Me ?
TTITLE23=Tollin' Bells
TTITLE24=Shed No Tears
TTITLE25=Do Me Right
TTITLE26=Trouble With The Blues
TTITLE27=Don`t Drive Me, Baby
EXTD=YEAR: 2015
EXTT0=
EXTT1=
EXTT2=
EXTT3=
EXTT4=
EXTT5=
EXTT6=
EXTT7=
EXTT8=
EXTT9=
EXTT10=
EXTT11=
EXTT12=
EXTT13=
EXTT14=
EXTT15=
EXTT16=
EXTT17=
EXTT18=
EXTT19=
EXTT20=
EXTT21=
EXTT22=
EXTT23=
EXTT24=
EXTT25=
EXTT26=
EXTT27=
PLAYORDER=
